<svg xmlns="http://www.w3.org/2000/svg" viewBox="0 0 512 512" role="img" aria-label="Esperance FC Academy">
  <rect width="512" height="512" rx="96" fill="#111111"/>
  <circle cx="256" cy="256" r="178" fill="#D4AF37"/>
  <path d="M256 110c-17 0-31 14-31 31v86h-86c-17 0-31 14-31 31s14 31 31 31h86v86c0 17 14 31 31 31s31-14 31-31v-86h86c17 0 31-14 31-31s-14-31-31-31h-86v-86c0-17-14-31-31-31z" fill="#111111"/>
  <text x="256" y="430" text-anchor="middle" font-size="48" font-family="Arial, Helvetica, sans-serif" font-weight="700" fill="#ffffff">EFC</text>
</svg>
